<svg version="1.1" xmlns="http://www.w3.org/2000/svg" xmlns:xlink="http://www.w3.org/1999/xlink" width="700px" height="700px" viewBox="0,0,256,256"><g transform=""><g fill="#222222" fill-rule="nonzero" stroke="none" stroke-width="1" stroke-linecap="butt" stroke-linejoin="miter" stroke-miterlimit="10" stroke-dasharray="" stroke-dashoffset="0" font-family="none" font-weight="none" font-size="none" text-anchor="none" style="mix-blend-mode: normal"><path d="M0,256v-256h256v256z" id="bgRectangle"></path></g><g fill="none" fill-rule="nonzero" stroke="none" stroke-width="1" stroke-linecap="butt" stroke-linejoin="miter" stroke-miterlimit="10" stroke-dasharray="" stroke-dashoffset="0" font-family="none" font-weight="none" font-size="none" text-anchor="none" style="mix-blend-mode: normal"><g transform="scale(3.2,3.2)"><path d="M2.5,77.5c0.3,-12.7 10.7,-23 23.5,-23h16c12.8,0 23.2,10.3 23.5,23z" fill="#af670e"></path><path d="M42,55c12.3,0 22.5,9.8 23,22h-62c0.5,-12.2 10.6,-22 23,-22h16M42,54h-16c-13.3,0 -24,10.7 -24,24h64c0,-13.3 -10.7,-24 -24,-24z" fill="#4e7ab5"></path><path d="M34,61.5c-7,0 -9.2,-4.8 -9.5,-5.5v-11.5h19v11.5c-0.3,0.7 -2.5,5.5 -9.5,5.5z" fill="#deb974"></path><path d="M43,45v10.9c-0.4,0.8 -2.6,5.1 -9,5.1c-6.4,0 -8.6,-4.2 -9,-5.1v-10.9h18M44,44h-20v12.1c0,0 2.1,5.9 10,5.9c7.9,0 10,-5.9 10,-5.9v-12.1z" fill="#967a44"></path><path d="M48.3,38.9c-2.9,0 -5.2,-2.3 -5.2,-5.2c0,-2.9 2.3,-5.2 5.2,-5.2c3.7,0 5.2,1 5.2,3.3c0,2.8 -2.3,7.1 -5.2,7.1zM19.7,38.9c-2.9,0 -5.2,-4.3 -5.2,-7.1c0,-2.4 1.5,-3.3 5.2,-3.3c2.9,0 5.2,2.3 5.2,5.2c0,2.9 -2.3,5.2 -5.2,5.2z" fill="#deb974"></path><path d="M48.3,29c3.9,0 4.7,1.1 4.7,2.8c0,2.8 -2.3,6.6 -4.7,6.6c-2.6,0 -4.7,-2.1 -4.7,-4.7c0,-2.6 2.1,-4.7 4.7,-4.7M19.7,29c2.6,0 4.7,2.1 4.7,4.7c0,2.6 -2.1,4.7 -4.7,4.7c-2.4,0 -4.7,-3.8 -4.7,-6.6c0,-1.7 0.8,-2.8 4.7,-2.8M48.3,28c-3.2,0 -5.7,2.6 -5.7,5.7c0,3.1 2.6,5.7 5.7,5.7c3.2,0 5.7,-4.5 5.7,-7.6c0,-3.1 -2.6,-3.8 -5.7,-3.8zM19.7,28c-3.2,0 -5.7,0.7 -5.7,3.8c0,3.1 2.6,7.6 5.7,7.6c3.1,0 5.7,-2.6 5.7,-5.7c0,-3.1 -2.5,-5.7 -5.7,-5.7z" fill="#967a44"></path><path d="M34,53.5c-1.3,0 -2.6,-0.5 -3.6,-1.4l-0.1,-0.1h-0.1c-6.9,-1.8 -11.6,-7.9 -11.6,-15v-18.6c0,-3.9 3.2,-7.1 7.1,-7.1h16.8c3.9,0 7.1,3.2 7.1,7.1v18.6c0,7.1 -4.8,13.2 -11.6,15h-0.1l-0.1,0.1c-1.2,0.9 -2.5,1.4 -3.8,1.4z" fill="#f5ce85"></path><path d="M42.4,11.8c3.7,0 6.6,3 6.6,6.6v18.6c0,6.8 -4.6,12.8 -11.3,14.5l-0.2,0.1l-0.2,0.2c-0.9,0.7 -2.1,1.2 -3.3,1.2c-1.2,0 -2.4,-0.5 -3.3,-1.3l-0.2,-0.2l-0.2,-0.1c-6.7,-1.6 -11.3,-7.6 -11.3,-14.4v-18.6c0,-3.7 3,-6.6 6.6,-6.6h16.8M42.4,10.8h-16.8c-4.2,0 -7.6,3.4 -7.6,7.6v18.6c0,7.5 5.1,13.7 12,15.5c1.1,0.9 2.5,1.5 4,1.5c1.5,0 2.9,-0.6 4,-1.5c6.9,-1.8 12,-8 12,-15.5v-18.6c0,-4.2 -3.4,-7.6 -7.6,-7.6z" fill="#967a44"></path><g><path d="M49.5,35.5v-7.5c0,-7 -6.8,-10.8 -7.1,-10.9l-0.4,-0.2l-0.3,0.3c-0.1,0.1 -5.4,6 -14.5,6c-3.8,0 -8.8,0.7 -8.8,6.8v5.5h-0.2c-0.7,-1.5 -3.8,-8.7 -3.8,-14.9c0.1,-10.8 7.5,-18.1 18.6,-18.1c8,0 10.4,5.5 10.5,5.7l0.1,0.3h0.3c3.5,0 9.5,2.4 9.5,11.5c0,5.6 -3.2,13.8 -3.8,15.5z" fill="#a6714e"></path><path d="M33,3c7.7,0 10,5.2 10.1,5.4l0.2,0.6h0.7c0.9,0 9,0.3 9,11c0,4.2 -1.8,10 -3,13.2v-5.2c0,-7.3 -7.1,-11.2 -7.4,-11.4l-0.7,-0.4l-0.5,0.6c-0.1,0.1 -5.2,5.8 -14.1,5.8c-2.3,0 -9.3,0 -9.3,7.3v3.5c-1.2,-2.9 -3,-8.2 -3,-12.9c0,-10.4 7.2,-17.5 18,-17.5M33,2c-11.6,0 -19,8 -19,18.6c0,7.1 4,15.4 4,15.4h1c0,0 0,-4.1 0,-6c0,-5.3 4,-6.3 8.3,-6.3c9.5,0 14.8,-6.2 14.8,-6.2c0,0 6.9,3.7 6.9,10.5c0,2.1 0,8 0,8h1c0,0 4,-9.5 4,-16c0,-9 -5.8,-12 -10,-12c0,0 -2.5,-6 -11,-6z" fill="#7a4f34"></path></g><path d="M70,38c-1.65685,0 -3,1.34315 -3,3c0,1.65685 1.34315,3 3,3c1.65685,0 3,-1.34315 3,-3c0,-1.65685 -1.34315,-3 -3,-3zM72,34h-4v-4c0,-2.7 2,-4.7 3.8,-6.6c2,-2.1 4.2,-4.3 4.2,-7.4c0,-3.3 -2.7,-6 -6,-6c-3.3,0 -6,2.7 -6,6v2h-4v-2c0,-5.5 4.5,-10 10,-10c5.5,0 10,4.5 10,10c0,4.7 -2.9,7.7 -5.3,10.2c-1.4,1.4 -2.7,2.7 -2.7,3.8z" fill="#36404d"></path></g></g></g></svg>